<svg xmlns="http://www.w3.org/2000/svg" xmlns:xlink="http://www.w3.org/1999/xlink" xmlns:fi="http://pattern.flaticon.com/" x="0" y="0" width="1920" height="700" viewBox="0 0 1920 700"><rect x="0px" y="0px" width="100%" height="100%" opacity="0" fill="#ffffff"/><defs><path d="M357.7,119.7c12.4-12.4,12.4-32.4,0-44.8l-7.2-7.2c10-14.4,8.4-34-4-46.8c-6.8-6.8-16-10.8-26-10.8    c-7.6,0-14.8,2.4-20.8,6.4l-7.2-7.2c-6-6-14-9.2-22.4-9.2c-8.4,0-16.4,3.2-22.4,9.2c-5.6,5.6-8.4,12.8-9.2,20    c-5.6-2.8-11.6-4.4-18-4.4c-10.8,0-20.4,4-28,11.6c-7.6,7.6-11.6,17.6-11.6,28c0,10.8,4,20.4,11.6,28l22,22l-99.6,99.2l-22-22    c-7.6-7.6-17.6-11.6-28-11.6c-10.8,0-20.4,4-28,11.6c-12.4,12.4-14.8,31.2-7.2,46c-7.6,0.4-14.8,3.6-20.4,9.2    c-12.4,12.4-12.4,32.8,0,45.2l7.6,7.2c-4.4,6-6.4,13.2-6.4,20.8c0,9.6,4,18.8,10.8,26c7.2,7.2,16.4,10.8,26,10.8    c7.2,0,14.4-2.4,20.8-6.4l7.2,7.2c6,6,14,9.2,22.4,9.2c8.4,0,16.4-3.2,22.4-9.2c5.6-5.6,8.4-12.8,9.2-20c5.6,2.8,11.6,4.4,18,4.4    c10.4,0,20.4-4,28-11.6c15.6-15.6,15.6-40.8,0-56l-22-22l99.2-99.2l22,22c7.6,7.6,17.6,11.6,28,11.6c10.8,0,20.4-4,28-11.6    c13.2-13.2,14.8-33.2,6-48.4c0.8,0,1.6,0,2.4,0C346.9,126.9,353.3,124.5,357.7,119.7z M336.9,30.1c7.6,7.6,8.8,18.8,4,28    l-31.6-31.6C318.1,21.3,329.7,22.5,336.9,30.1z M30.5,336.5c-7.6-7.6-8.8-18.8-4-28l31.6,31.6C49.3,345.3,37.7,344.1,30.5,336.5z     M110.5,348.1c-7.2,7.2-19.2,7.2-26.4,0l-65.2-65.2c-7.2-7.6-7.2-19.2,0-26.4c3.6-3.6,8.4-5.6,13.2-5.6c4.8,0,9.6,2,13.2,5.6    l65.2,65.2C117.7,328.9,117.7,340.9,110.5,348.1z M165.7,283.3c10.4,10.4,10.4,27.2,0,37.6c-5.2,5.2-11.6,7.6-18.8,7.6    s-13.6-2.8-18.8-7.6l-82-82c-10-10.4-10-27.6,0-37.6c5.2-5.2,11.6-7.6,18.8-7.6s13.6,2.8,18.8,7.6l55.6,55.6L165.7,283.3z     M144.1,242.5l-19.6-19.6l98.8-98.8l19.6,19.6L144.1,242.5z M320.5,164.9c-5.2,5.2-11.6,7.6-18.8,7.6s-13.6-2.8-18.8-7.6    l-54.8-54.8l-26.4-26.8c-5.2-4.8-8-11.6-8-18.8c0-7.2,2.8-13.6,7.6-18.8c5.2-5.2,11.6-7.6,18.8-7.6s13.6,2.8,18.8,7.6l58,58    l9.6,9.6l14,14C330.9,137.7,330.9,154.5,320.5,164.9z M316.5,104.5l-8.8-8.4l-50.8-51.2c-7.6-7.2-7.6-19.2,0-26.4    c3.6-3.6,8.4-5.6,13.2-5.6c5.2,0,9.6,2,13.2,5.6l11.6,11.6l42.4,42.4l11.6,11.6c7.2,7.2,7.2,19.2,0,26.4c-2.8,2.8-6.8,3.2-9.6,3.2    C331.3,113.7,322.1,110.1,316.5,104.5z" transform="matrix(0.1634877324104309 0 0 0.1634877324104309 223 181)" id="L1_0"/><g transform="matrix(0.13952773809432983 0 0 0.13952773809432983 -5.99999986374246 265)" id="L1_1"><path d="M394.681,377.222c-1.2-4-4.8-5.2-8.4-3.6c-128.8,63.6-242.4,36.4-243.6,36.4c-0.4,0-0.4,0-0.8,0c-0.8,0-92.8-10.8-94-73.6    c-1.2-66.4,34.8-198.4,61.2-263.6c22.8-56,81.6-58.8,110-60h2.4c22-0.8,51.2,42,52,53.2c0.4,2.4-1.6,5.6-4.8,9.2    c-8,8.8-23.2,16.4-32,16.4c-4.4,0-11.2-4.4-18.4-9.2c-5.2-3.6-11.2-7.2-17.6-10.4l-33.2-18.8c-3.2-1.6-7.2-0.8-8.8,2.4    c-1.6,3.2-0.8,7.2,2.4,8.8l5.6,3.2c-5.2,2-10,5.6-13.6,11.6c-14.8,22.4-14.8,72-8,98c7.6,29.6,20.8,101.2,20.8,102    c0.4,2.4,2.4,4.4,4.4,5.2c2.4,0.8,4.8,0,6.8-1.6c56.4-60,118.4-8.4,120.8-6c2.8,2.4,6.8,2,9.2-0.4c30.8-34.8,82.8-46.4,83.2-46.4    c3.6-0.8,5.6-4.4,4.8-8c-0.8-3.6-4.4-5.6-8-4.8c-2,0.4-52,11.6-86,46c-16.8-12-72-44.4-124.8,2c-4-22-12.8-68-18.8-90.8    c-6-22.4-6.4-68.4,6.4-87.2c2.8-4,6-6.4,9.2-6.8c14-2,26.8,6.4,38,13.6c9.2,6,17.2,11.2,25.6,11.2c12.4,0,31.2-9.2,41.6-20.8    c6-6.4,8.8-13.2,8-19.2c-1.6-18-36-66.4-66-65.2h-2.4c-28.8,1.2-95.6,4.4-121.2,68.4c-23.2,57.2-63.6,195.6-62,268.8    c1.2,72,97.2,85.6,105.2,86.4c4,0.8,29.2,6.4,67.2,6.4c46.8,0,113.2-8.4,184.8-44    C395.081,384.422,396.281,380.422,394.681,377.222z"/><path d="M285.481,326.422l-40.8-48.4c-1.2-1.6-3.2-2.4-5.2-2.4s-3.6,0.8-5.2,2.4l-41.2,49.2c-1.6,2-2,4.8-0.8,6.8    c1.2,2.4,3.2,3.6,6,3.6h17.2v48.8c0,4,2.8,7.2,6.4,7.2h34c3.6,0,6.4-2.8,6.4-6.4v-49.2h18.8c3.6,0.4,6.8-2.8,6.8-6.4    C287.881,329.622,287.081,327.622,285.481,326.422z M256.281,324.822c-3.6,0-6.4,2.8-6.4,6.4v48.8h-20.8v-48.4    c0-3.6-2.8-6.4-6.4-6.4h-10.4v-0.4l27.6-32.4l27.6,32.4H256.281z"/></g><g transform="matrix(0.11706425994634628 0 0 0.11706425994634628 128.99999877105392 14)" id="L1_2"><path d="M428.124,395.421c-44.853,39.194-99.756,67.624-163.186,84.502c-55.504,14.768-117.617,20.265-180.018,15.96   c-5.791-0.4-11.223-3.023-15.103-7.341c-11.516-12.815-19.54-29.37-26.259-45.075c-7.987-18.669-13.116-38.209-16.576-58.186   c-7.37-42.561-4.91-85.113,2.549-127.488c1.631-9.266,4.149-18.097,6.561-27.147c1.462-5.488,1.356-13.015-6.303-12.74   c-7.595,0.272-9.083,10.8-10.582,16.535c-2.844,10.882-4.323,22.035-6.449,33.072C1.125,327.899,1.125,421.899,52.943,492.89   c5.631,7.714,11.042,14.431,20.669,16.706c16.827,3.977,36.375,2.771,53.589,2.771c49.25,0,96.704-6.004,141.593-17.949   c65.673-17.475,122.6-46.982,169.2-87.703C445.262,400.363,435.445,389.029,428.124,395.421z"/><path d="M505.431,263.422c-3.314-33.459-20.157-63.925-46.211-83.586c-52.6-39.693-135.596-30.951-172.368,26.381   c-16.395,25.56-21.848,56.277-15.531,84.716c-14.696-4.24-30.162-5.586-45.45-3.893c-24.249,2.684-46.772,12.92-64.198,28.789   c0.976-10.404,1.691-23.37,1.498-38.328c-0.464-35.956-6.55-90.577-32.674-147.629c18.558-8.279,28.313-17.232,33.347-23.706   c3.257,5.271,8.02,9.434,13.656,11.802c12.63,5.306,23.529-1.76,34.906-6.658c10.269-4.421,20.356-9.709,26.886-19.142   c7.665-11.072,5.667-21.781,2.373-33.896c-3.812-14.026-7.754-28.53-17.492-41.808c-0.112-0.153-0.23-0.302-0.354-0.446   C216.196,7.125,206.3,1.595,195.953,0.445c-0.12-0.013-0.24-0.024-0.36-0.031c-14.918-0.933-30.445-0.304-50.344,2.037   c-0.103,0.012-0.206,0.026-0.309,0.043C115.543,7.197,93.789,24.458,78.117,45.3c-16.993,22.599-16.445,53.497-15.569,67.654   c-3.341,10.184-7.727,20.1-12.359,30.572c-4.766,10.775-9.694,21.917-13.4,33.43c-2.934,9.116,11.297,13.862,14.278,4.596   c7.207-22.389,19.07-42.958,26.204-65.378c1.845-5.799-7.147-36.274,14.144-63.86c14.561-18.866,31.725-31.103,55.742-34.984   c18.81-2.207,33.419-2.811,47.307-1.957c6.419,0.763,12.718,4.375,17.782,10.195c7.966,10.974,11.356,23.443,14.942,36.638   c2.634,9.695,3.632,12.678-0.556,21.882c-5.165,7.107-13.3,10.24-20.972,13.787c-6.943,3.21-16.408,10.006-24.121,5.356   c-3.948-2.38-4.761-5.808-7.09-9.361c-3.479-5.309-11.823-12.774-8.417-20.056c3.069-6.561,10.88-4.877,15.9-2.32   c4.936,2.515,12.218,5.634,15.512-0.875c3.408-6.733-3.812-9.999-8.701-12.49c-4.874-2.484-10.933-5.571-19.264-3.55   c-8.076,1.667-14.511,6.661-17.265,13.398c-4.305,9.837-0.461,18.69,3.235,25.239l-0.903-0.264c0,0,0.017-0.073,0.066-0.211   c-1.669,4.64-11.214,15.966-35.387,25.616c-2.93,1.17-4.786,4.119-4.669,7.238c0.086,2.274,0.458,6.524,1.384,8.511   c25.732,55.205,31.726,108.284,32.222,143.09c0.429,30.064-3.05,52.054-4.529,59.963c-16.986,26.654-21.068,60.642-10.477,90.424   c3.214,9.04,17.378,4.102,14.133-5.025c-12.221-34.367-1.037-73.7,26.305-97.174c29.106-24.989,71.087-30.837,106.159-15.495   c5.945,2.603,12.33-3.488,10.011-9.551c-7.937-20.742-7.831-44.041-0.548-64.949c7.297-20.949,21.076-36.085,38.873-48.798   c35.549-25.393,88.166-20.387,122.094,5.215c22.721,17.146,37.416,43.786,40.318,73.091c2.712,27.375-4.578,56.068-21.079,82.976   c-1.908,3.112-3.964,6.243-6.109,9.306c-5.539,7.906,6.71,16.566,12.285,8.606c2.32-3.312,4.545-6.7,6.611-10.071   C500.438,325.996,508.467,294.081,505.431,263.422z"/></g><g transform="matrix(0.1171875 0 0 0.1171875 43 190)" id="L1_3"><path d="M247.452,271.825c-2.857-2.999-7.605-3.111-10.604-0.254L212,295.256V276.5c0-4.142-3.357-7.5-7.5-7.5s-7.5,3.358-7.5,7.5   v63c0,4.142,3.357,7.5,7.5,7.5s7.5-3.358,7.5-7.5v-17.756l24.849,23.685c1.452,1.384,3.314,2.071,5.174,2.071   c1.979,0,3.956-0.779,5.43-2.325c2.858-2.999,2.744-7.746-0.254-10.604L219.846,308.5l27.353-26.071   C250.196,279.571,250.311,274.824,247.452,271.825z"/><path d="M287,284.5c4.715,0,9.013,2.779,10.951,7.081c1.701,3.778,6.145,5.459,9.919,3.757c3.776-1.701,5.458-6.142,3.757-9.918   C307.271,275.749,297.604,269.5,287,269.5c-14.888,0-27,12.112-27,27v24c0,14.888,12.112,27,27,27s27-12.112,27-27V310   c0-4.142-3.357-7.5-7.5-7.5h-13c-4.143,0-7.5,3.358-7.5,7.5s3.357,7.5,7.5,7.5h5.5v3c0,6.617-5.383,12-12,12s-12-5.383-12-12v-24   C275,289.883,280.383,284.5,287,284.5z"/><path d="M462.5,183.751v-75.502C462.5,48.561,413.939,0,354.251,0H157.749C98.061,0,49.5,48.561,49.5,108.249V120   c0,9.674,15,9.674,15,0v-11.751C64.5,56.832,106.331,15,157.749,15h196.502c51.418,0,93.249,41.832,93.249,93.249v75.502   c0,31.749-16.398,61.506-43.034,78.577c-3.024-3.899-6.201-7.699-9.548-11.376c-6.528-7.171-17.621,2.925-11.094,10.097   c24.477,26.894,39.67,60.509,43.811,96.268c-43.411,17.607-88.123,28.657-132.999,32.824c-37.423,3.474-75.056,2.213-111.852-3.751   c-46.088-7.47-82.385-21.299-98.411-29.062c9.731-84.109,81.098-149.202,165.162-152.565   c40.119-1.605,80.066,11.112,111.885,35.635c3.53,1.16,6.998,1.239,10.404,0.239c25.121-10.216,41.354-34.341,41.354-61.461v-66.35   c0-36.572-29.753-66.325-66.325-66.325H165.146c-36.572,0-66.325,29.753-66.325,66.325v66.35c0,23.949,12.865,45.675,33.023,57.376   c-8.864,7.827-16.986,16.474-24.244,25.824c-26.724-17.074-43.1-46.681-43.1-78.625V159c0-9.674-15-9.674-15,0v24.751   c0,36.82,18.739,70.968,49.371,90.848c-33.065,50.411-45.873,127.502-8.423,179.207C127.129,504.447,198.444,512,256,512   c60.416,0,137.203-8.889,171.049-66.603c30.236-51.558,17.473-123.002-13.86-170.853C443.726,254.666,462.5,220.351,462.5,183.751z    M113.821,179.175v-66.35c0-28.3,23.024-51.325,51.325-51.325h181.707c28.301,0,51.325,23.024,51.325,51.325v66.35   c0,20.517-12.007,38.812-30.705,47.009C335.019,202.2,296.506,189.523,256,189.523c-41.671,0-80.209,13.651-111.395,36.705   C126.034,218.126,113.821,199.706,113.821,179.175z M379.657,471.793C351.061,488.755,310.611,497,256,497   s-95.061-8.245-123.657-25.207c-24.135-14.316-39.205-34.661-45.588-61.705c69.131,30.738,149.642,38.928,224.198,29.388   c9.619-1.231,7.715-16.101-1.904-14.879c-72.633,9.293-159.02,2.805-224.902-32.36c-1.829-0.98-0.946-16.159-0.883-18.933   c107.927,48.117,237.004,42.53,345.471-0.263c0.167,6.497-0.047,12.987-0.642,19.471c-28.032,11.653-56.825,20.573-85.605,26.505   c-9.362,1.93-6.04,16.555,3.027,14.691c26.794-5.523,53.586-13.548,79.793-23.884C418.959,437,403.871,457.431,379.657,471.793z"/></g><path d="M504.5,497H390.914V160.359c11.532-4.486,19.733-15.703,19.737-28.809l0-0.75l25.144,0.007v86.448  c0,16.129,13.122,29.251,29.251,29.251c16.129,0,29.251-13.122,29.251-29.251v-86.446h10.035c9.673,0,9.673-15,0-15h-10.035V29.251  C494.298,13.122,481.176,0,465.047,0c-16.129,0-29.251,13.122-29.251,29.251v86.556l-25.142-0.007l0.003-16.79  c0.002-9.657-14.998-9.693-15-0.003l-0.003,16.789l-31.791-0.01l0.003-16.789c0.002-9.657-14.998-9.693-15-0.003l-0.003,16.788  l-188.041-0.056l0.003-16.716c0.002-9.657-14.998-9.693-15-0.003l-0.003,16.714l-31.791-0.01l0.003-16.715  c0.002-9.657-14.998-9.693-15-0.003l-0.003,16.713l-22.827-0.007V29.251C76.205,13.122,63.083,0,46.953,0  C30.824,0,17.702,13.122,17.702,29.251v28.041c0,9.673,15,9.673,15,0V29.251C32.702,21.393,39.095,15,46.953,15  c7.858,0,14.251,6.393,14.251,14.251v188.003c0,7.858-6.393,14.252-14.251,14.252c-7.858,0-14.251-6.394-14.251-14.252V93.269  c0-9.673-15-9.673-15,0v22.429H7.667c-9.673,0-9.673,15,0,15h10.035v86.557c0,16.129,13.122,29.252,29.251,29.252  c16.129,0,29.251-13.123,29.251-29.252v-86.555l22.824,0.007l0,0.826c-0.002,8.256,3.208,16.019,9.041,21.859  c3.689,3.694,8.15,6.336,13.017,7.782V497H7.5c-9.673,0-9.673,15,0,15h121.086h254.828H504.5C514.173,512,514.173,497,504.5,497z   M450.795,29.251c0-7.858,6.393-14.251,14.251-14.251c7.858,0,14.251,6.393,14.251,14.251v188.004  c0,7.858-6.393,14.251-14.251,14.251c-7.858,0-14.251-6.393-14.251-14.251V29.251z M363.86,130.785l31.791,0.01l0,0.751  c-0.002,8.773-7.132,15.909-15.896,15.908c-0.001,0-0.003,0-0.004,0c-8.765-0.002-15.894-7.143-15.891-15.917L363.86,130.785z   M118.683,142.792c-3.002-3.007-4.656-7.004-4.654-11.256l0-0.826l31.791,0.01l0,0.826c-0.002,8.644-6.927,15.683-15.512,15.889  c-0.553-0.13-1.128-0.206-1.721-0.206c-0.296,0-0.587,0.022-0.874,0.055C124.306,146.811,121.156,145.269,118.683,142.792z   M177.3,497v-64.541l118.783,0.022c9.612,0,9.668-14.998,0.003-15l-118.784-0.021l0.007-24.271  c0.003-9.963,8.331-18.303,18.295-18.303l120.811,0.027c10.085,0.003,18.288,8.218,18.285,18.314l-0.007,24.267l-7.079-0.006  c-9.611,0-9.677,14.992-0.012,15l7.089,0.006V497H177.3z M349.691,497v-70.949c0-0.176-0.014-0.348-0.026-0.521  c0.012-0.176,0.026-0.351,0.026-0.528l0.009-31.771c0.005-18.367-14.925-33.313-33.281-33.318l-120.811-0.027  c-0.003,0-0.006,0-0.009,0c-8.89,0-17.248,3.463-23.535,9.751c-6.288,6.289-9.752,14.652-9.755,23.548l-0.009,31.771  c0,0.186,0.014,0.37,0.027,0.555c-0.013,0.179-0.027,0.358-0.027,0.541V497h-26.214V161.835  c14.089-2.866,24.728-15.354,24.733-30.285l0-0.825l188.041,0.056l0,0.752c-0.004,15.746,11.822,28.774,27.054,30.673V497H349.691z" transform="matrix(0.1171875 0 0 0.1171875 -28 97)" id="L1_4"/><g transform="matrix(0.11717125028371811 0 0 0.11717125028371811 187 274)" id="L1_5"><path d="M334.18,421.647c30.477-36.474,75.64-44.727,116.516-64.153c8.737-4.154,2.298-17.702-6.439-13.548   c-43.143,20.512-89.405,29.569-121.587,68.083c-31.542,37.747-80.754,67.68-125.375,76.257   c-43.27,8.318-103.391,14.371-146.189-3.292c87.728,14.303,180.288-17.461,243.795-78.622   c30.719-29.584,65.173-51.792,102.792-71.158c28.434-14.638,50.11-34.308,62.685-56.885c8.176-14.679,12.018-29.7,11.49-44.434   c7.4,4.905,15.634,11.862,19.69,19.985c9.465,18.956,9.103,48.092-20.3,73.017c-7.405,6.278,2.369,17.656,9.699,11.442   c29.681-25.161,39.11-60.943,24.021-91.16c-8.627-17.275-28.478-28.512-36.328-32.424c-0.793-2.606-1.722-5.194-2.805-7.759   c-11.064-26.217-59.639-62.591-98.44-88.489c-11.023-7.357-24.475-8.764-36.331-4.784L256.734,3.291   c-5.403-8.025-17.846,0.35-12.443,8.376l73.618,109.361c-14.064,11.601-23.635,28.739-36.501,41.698   c-11.727,11.813-25.539,20.52-42.063,23.653c-1.229-17.396-6.757-42.113-28.257-43.13L115.711,3.257   c-5.446-7.996-17.844,0.45-12.396,8.445l93.273,136.904c-7.051,6.526-11.949,19.025-15.651,39.693   c-1.706,9.522,13.06,12.168,14.765,2.645c1.318-7.355,4.377-35.266,17.182-32.326c8.495,1.954,12.03,22.75,11.744,36.182   c-0.001,0.034,0.003,0.067,0.003,0.101c0,0.037-0.005,0.073-0.005,0.111c0.186,35.48-4.699,86.487-29.018,127.999   c-14.366,24.523-28.993,34.317-29.32,34.533c-0.937,0.603-1.688,1.383-2.252,2.264c-22.023,13.738-41.039,16.073-53.948,15.275   c0.088-0.043,0.176-0.086,0.264-0.129c11.117-5.435,21.36-13.491,30.667-24.077l11.319,5.206   c8.803,4.046,15.051-9.588,6.269-13.628l-8.093-3.722c6.166-8.831,11.396-18.281,15.945-28.036l16.214,5.659   c9.12,3.183,14.084-10.972,4.943-14.162l-15.246-5.321c3.859-9.833,7.294-20.334,10.256-31.371l16.744,4.513   c9.157,2.469,13.283-11.955,3.903-14.483l-17.084-4.604c1.979-8.905,3.674-18.079,5.042-27.471   c1.394-9.574-13.449-11.736-14.844-2.162c-5.45,37.418-15.834,76.376-37.583,107.858c-22.454,32.503-60.718,43.35-93.615,62.724   C18.453,407.617-5.395,426.058,1.07,454.142c4.902,21.293,20.369,34.027,40.615,43.16c48.584,21.918,107.743,15.46,158.44,5.714   C247.936,493.825,300.555,461.886,334.18,421.647z M452.025,212.827c7.801,18.486,6.158,38.612-4.753,58.202   c-10.594,19.021-29.663,36.497-53.851,49.462c-22.516-64.435-15.277-146.675-11.957-174.066   C420.473,174.293,445.758,197.979,452.025,212.827z M312.189,150.17c3.866-4.721,7.863-9.603,12.094-14.487   c8.737-10.087,23.697-12.107,34.795-4.7c1.722,1.149,3.42,2.292,5.102,3.431c1.04,4.588,3.635,21.265-8.294,38.659   c-17.218,25.107-57.626,40.926-116.909,45.819c0.359-6.024,0.554-11.826,0.622-17.336   C274.8,195.815,292.996,173.607,312.189,150.17z M237.742,234.043c0.03-0.002,0.06-0.001,0.09-0.003   c60.948-4.7,102.966-20.059,125.144-45.679c-1.596,38.954,0.341,92.63,16.853,138.711c0.055,0.154,0.134,0.292,0.198,0.44   c-8.431,4.464-16.312,8.816-23.848,13.25c-17.09-11.495-46.529-22.089-94.742-15.791c-19.861,2.594-40.408,7.957-58.886,15.115   c1.784-2.623,3.584-5.429,5.381-8.448C226.251,300.861,234.47,265.444,237.742,234.043z M52.799,404.799   c10.196-6.005,22.355-12.363,35.437-18.925c4.013,1.48,13.393,4.31,26.471,4.31c15.736,0,36.816-4.102,60.296-19.588   c40.235-26.537,120.952-45.512,166.791-20.983c-19.313,12.467-37.087,26.489-57.3,45.955   c-43.641,42.029-99.828,68.774-158.209,75.309c-56.963,6.377-106.579-2.64-110.598-20.1   C12.168,435.49,22.574,422.599,52.799,404.799z"/><path d="M318.513,35.479h142c9.674,0,9.674-15,0-15h-142C308.838,20.479,308.838,35.479,318.513,35.479z"/><path d="M420.013,95.979c0,4.142,3.358,7.5,7.5,7.5h77c9.674,0,9.674-15,0-15h-77C423.37,88.479,420.013,91.837,420.013,95.979z"/><path d="M504.513,413.479h-77c-9.674,0-9.674,15,0,15h77C514.187,428.479,514.187,413.479,504.513,413.479z"/><path d="M349.513,476.294c-0.012,0-0.023,0-0.035,0l-41.5,0.186c-9.537,0.043-9.509,15,0.067,15l41.5-0.186   C359.2,491.25,359.165,476.294,349.513,476.294z"/><path d="M478.833,476.203c-0.007,0-0.016,0-0.023,0l-90.668,0.276c-9.537,0.029-9.531,15,0.046,15l90.668-0.276   C488.516,491.174,488.493,476.203,478.833,476.203z"/></g><g transform="matrix(0.1171875 0 0 0.1171875 136 104.0000000439453)" id="L1_6"><path d="m173.300781 447.929688c2.628907 0 5.207031-1.070313 7.066407-2.929688 1.859374-1.859375 2.933593-4.441406 2.933593-7.070312 0-2.628907-1.070312-5.210938-2.933593-7.070313-1.859376-1.859375-4.4375-2.929687-7.066407-2.929687-2.632812 0-5.210937 1.070312-7.070312 2.929687s-2.929688 4.441406-2.929688 7.070313c0 2.628906 1.066407 5.210937 2.929688 7.070312 1.859375 1.859375 4.441406 2.929688 7.070312 2.929688zm0 0"/><path d="m502.46875 492h-48.105469l-18.277343-32.671875v-89.132813c0-21.019531-13.492188-39.332031-33.570313-45.5625l-76.714844-23.8125v-81.226562c0-7.546875-2.230469-14.652344-6.140625-20.621094 21.769532-7.507812 37.457032-28.1875 37.457032-52.472656 0-28.933594-22.261719-52.757812-50.554688-55.269531v-41.167969c0-27.605469-22.457031-50.0625-50.0625-50.0625-5.523438 0-10 4.476562-10 10v79.816406c-.046875 0-.089844-.007812-.136719-.007812-8.699219-.175782-16.925781 3.078125-23.183593 9.113281-6.257813 6.035156-9.792969 14.148437-9.949219 22.839844-.328125 17.945312 14.007812 32.808593 31.953125 33.136719l.582031.011718c-1.738281 16.355469-6.582031 32.519532-14.296875 47.394532-2.75 5.304687-4.207031 11.28125-4.207031 17.289062v86.007812l-24.089844 43.40625-129.0625 81.140626c-12.277344 7.71875-19.609375 20.984374-19.609375 35.488281v26.363281h-44c-5.523438 0-10 4.476562-10 10s4.476562 10 10 10h491.972656c5.519532 0 10-4.476562 10-10s-4.480468-10-10.003906-10zm-165.351562-345.5c0 17.898438-13.3125 32.742188-30.554688 35.15625v-70.3125c17.242188 2.414062 30.554688 17.257812 30.554688 35.15625zm-70.617188-124.789062c11.675781 4.128906 20.0625 15.277343 20.0625 28.351562v143.226562c0 4.359376 2.820312 8.214844 6.976562 9.53125 7.332032 2.328126 12.261719 9.070313 12.261719 16.773438v78.597656h-58.535156v-78.597656c0-2.855469.660156-5.574219 1.957031-8.082031 11.304688-21.792969 17.277344-46.03125 17.277344-70.101563zm-29.761719 109.351562c-2.324219-2.410156-3.574219-5.585938-3.511719-8.9375.058594-3.351562 1.421876-6.480469 3.835938-8.808594 2.355469-2.269531 5.441406-3.515625 8.703125-3.515625.140625 0 .28125.003907.421875.003907.105469 0 .207031-.011719.3125-.015626v25.128907l-.953125-.015625c-3.351563-.0625-6.480469-1.425782-8.808594-3.839844zm-84.964843 317.445312c-2.433594-4.957031-8.425782-7.003906-13.386719-4.566406l-44.304688 21.761719c-.660156.324219-1.28125.722656-1.855469 1.183594l-17.726562 14.246093v-15.496093c0-7.582031 3.832031-14.519531 10.253906-18.558594l131.234375-82.507813c1.425781-.894531 2.605469-2.140624 3.421875-3.609374l23.738282-42.769532h53.96875l-28.886719 43.359375c-12.058594 18.097657-28.75 32.730469-48.269531 42.316407l-20.703126 10.171874c-4.957031 2.433594-7 8.425782-4.566406 13.382813 2.4375 4.957031 8.429688 7.003906 13.386719 4.566406l20.699219-10.167969c22.6875-11.144531 42.082031-28.148437 56.097656-49.183593l7.851562-11.785157 81.773438 30.121094v92.441406c0 2.992188.460938 5.875 1.316406 8.585938h-282.914062l10.992187-8.835938 43.3125-21.273437c4.957031-2.433594 7-8.425781 4.566407-13.382813zm251.3125 43.492188c-4.734376 0-8.585938-3.851562-8.585938-8.585938v-99.414062c0-4.1875-2.613281-7.9375-6.542969-9.382812l-83.824219-30.878907 10.878907-16.332031 4.964843-7.449219 76.613282 23.773438c11.660156 3.621093 19.496094 14.253906 19.496094 26.464843v91.742188c0 1.710938.4375 3.390625 1.269531 4.882812l14.089843 25.179688zm0 0"/></g><path d="m121.175781 287.632812c5.34375 17.808594 37.191407 128 23.199219 176.976563-.699219 2.417969-.21875 5.023437 1.292969 7.035156 1.515625 2.011719 3.886719 3.191407 6.402343 3.1875h176c2.511719.003907 4.878907-1.175781 6.390626-3.179687 1.515624-2.003906 1.996093-4.605469 1.308593-7.019532-13.984375-48.933593 17.855469-159.199218 23.199219-176.976562 125-94.214844 121.773438-137.511719 120.992188-142.160156-.113282-.667969-.3125-1.316406-.59375-1.933594-9.597657-21.480469-59.398438-129.203125-92.800782-140.320312-14.398437-4.800782-25.992187-4.144532-34.398437 1.941406-9.304688 6.707031-13.832031 19.089844-13.832031 37.832031-.289063 6.195313 2.582031 12.113281 7.632812 15.714844 9.046875 6.398437 23.695312 4.269531 32.957031 1.957031 3.109375 9.761719 4.839844 19.90625 5.144531 30.144531-.554687 22.84375 3.617188 45.558594 12.25 66.714844-23.066406 6.210937-41.75 23.109375-50.242187 45.4375-20.898437.757813-41.035156 8.03125-57.597656 20.800781-17.847657-19.097656-15.410157-25.777344-6.503907-50.230468 1.742188-4.800782 3.679688-10.105469 5.695313-16.152344 9.945313-29.816406 2.449219-49.367188-5.601563-60.527344-9.535156-13.789062-25.234374-22.015625-42-22.015625-16.761718 0-32.460937 8.226563-42 22.015625-8.039062 11.160156-15.535156 30.710938-5.597656 60.527344 2.015625 6.046875 3.949219 11.367187 5.695313 16.152344 8.902343 24.453124 11.34375 31.132812-6.503907 50.230468-16.5625-12.769531-36.703124-20.042968-57.601562-20.800781-8.488281-22.328125-27.171875-39.226563-50.238281-45.4375 8.632812-21.15625 12.804687-43.871094 12.246093-66.714844.304688-10.238281 2.03125-20.382812 5.136719-30.144531 9.273438 2.3125 23.921875 4.433594 32.960938-1.957031 5.046875-3.601563 7.921875-9.519531 7.632812-15.714844 0-18.742187-4.527343-31.125-13.832031-37.832031-8.441406-6.085938-20-6.75-34.402344-1.941406-33.367187 11.117187-83.132812 118.839843-92.796875 140.320312-.28125.617188-.480469 1.265625-.59375 1.933594-.777343 4.648437-4 47.945312 121 142.136718zm-22.574219-269.207031c6.320313-2.945312 13.601563-3.039062 20-.257812 4.695313 3.386719 7.199219 12 7.199219 24.847656 0 2.027344-.570312 2.402344-.882812 2.648437-3.824219 2.714844-16.644531.976563-26.191407-2.398437-4.070312-1.433594-8.546874.625-10.109374 4.648437-5.152344 13.75-8.035157 28.246094-8.546876 42.917969 0 45.035157-14.488281 67.3125-14.605468 67.496094-1.507813 2.21875-1.808594 5.042969-.792969 7.527344 1.011719 2.480469 3.203125 4.289062 5.832031 4.816406 42.398438 8.480469 49.441406 40.378906 49.71875 41.679687.730469 3.761719 4.019532 6.480469 7.847656 6.480469 21.421876-.855469 42.304688 6.828125 58.066407 21.359375 1.46875 1.632813 3.542969 2.585938 5.734375 2.640625 2.195312.082031 4.324218-.769531 5.855468-2.34375 29.210938-29.199219 26.792969-41.414062 15.488282-72.445312-1.695313-4.664063-3.589844-9.851563-5.597656-15.738281-6.167969-18.519532-4.992188-34.464844 3.40625-46.121094 6.53125-9.601563 17.394531-15.351563 29.007812-15.351563s22.476562 5.75 29.007812 15.351563c8.402344 11.65625 9.601563 27.601562 3.410157 46.121094-1.96875 5.886718-3.867188 11.074218-5.601563 15.738281-11.304687 31.03125-13.71875 43.246093 15.488282 72.445312 1.542968 1.542969 3.652343 2.390625 5.835937 2.339844s4.25-.992187 5.722656-2.601563c15.785157-14.574218 36.714844-22.269531 58.175781-21.394531 3.832032 0 7.121094-2.71875 7.847657-6.480469.066406-.328124 6.914062-33.109374 49.722656-41.679687 2.621094-.523437 4.808594-2.324219 5.824219-4.800781 1.019531-2.472656.734375-5.292969-.761719-7.511719-.144531-.214844-14.632813-22.492187-14.632813-67.527344-.511718-14.664062-3.394531-29.152343-8.542968-42.894531-1.5625-4.023438-6.039063-6.082031-10.113282-4.648438-9.542968 3.351563-22.351562 5.097657-26.191406 2.398438-.3125-.214844-.878906-.621094-.878906-2.644531 0-12.875 2.488281-21.464844 7.199219-24.851563 6.398437-2.777344 13.679687-2.6875 20 .257813 20.457031 6.785156 61.167969 82.785156 82.527343 130.175781-.460937 6.128906-7.847656 46.105469-116.796874 127.808594-1.34375 1-2.335938 2.402344-2.832032 4-1.601562 5.023437-36.328125 117.367187-26.304687 178.398437h-156.128907c10.023438-61.015625-24.734374-173.359375-26.304687-178.398437-.5-1.597656-1.488281-3-2.832031-4-110.136719-82.566406-116.519532-122.519532-116.886719-127.6875 21.375-47.367188 62.136719-123.511719 82.617187-130.320313zm0 0" transform="matrix(0.12496419996023178 0 0 0.12496419996023178 286.0000001874464 4)" id="L1_7"/></defs><g fi:class="KUsePattern"><pattern id="pattern_L1_0" width="350" height="350" patternUnits="userSpaceOnUse"><use xlink:href="#L1_0" x="-350" y="-350"/><use xlink:href="#L1_0" x="0" y="-350"/><use xlink:href="#L1_0" x="350" y="-350"/><use xlink:href="#L1_0" x="-350" y="0"/><use xlink:href="#L1_0" x="0" y="0"/><use xlink:href="#L1_0" x="350" y="0"/><use xlink:href="#L1_0" x="-350" y="350"/><use xlink:href="#L1_0" x="0" y="350"/><use xlink:href="#L1_0" x="350" y="350"/></pattern><rect x="0" y="0" width="100%" height="100%" fill="url(#pattern_L1_0)"/></g><g fi:class="KUsePattern"><pattern id="pattern_L1_1" width="350" height="350" patternUnits="userSpaceOnUse"><use xlink:href="#L1_1" x="-350" y="-350"/><use xlink:href="#L1_1" x="0" y="-350"/><use xlink:href="#L1_1" x="350" y="-350"/><use xlink:href="#L1_1" x="-350" y="0"/><use xlink:href="#L1_1" x="0" y="0"/><use xlink:href="#L1_1" x="350" y="0"/><use xlink:href="#L1_1" x="-350" y="350"/><use xlink:href="#L1_1" x="0" y="350"/><use xlink:href="#L1_1" x="350" y="350"/></pattern><rect x="0" y="0" width="100%" height="100%" fill="url(#pattern_L1_1)"/></g><g fi:class="KUsePattern"><pattern id="pattern_L1_2" width="350" height="350" patternUnits="userSpaceOnUse"><use xlink:href="#L1_2" x="-350" y="-350"/><use xlink:href="#L1_2" x="0" y="-350"/><use xlink:href="#L1_2" x="350" y="-350"/><use xlink:href="#L1_2" x="-350" y="0"/><use xlink:href="#L1_2" x="0" y="0"/><use xlink:href="#L1_2" x="350" y="0"/><use xlink:href="#L1_2" x="-350" y="350"/><use xlink:href="#L1_2" x="0" y="350"/><use xlink:href="#L1_2" x="350" y="350"/></pattern><rect x="0" y="0" width="100%" height="100%" fill="url(#pattern_L1_2)"/></g><g fi:class="KUsePattern"><pattern id="pattern_L1_3" width="350" height="350" patternUnits="userSpaceOnUse"><use xlink:href="#L1_3" x="-350" y="-350"/><use xlink:href="#L1_3" x="0" y="-350"/><use xlink:href="#L1_3" x="350" y="-350"/><use xlink:href="#L1_3" x="-350" y="0"/><use xlink:href="#L1_3" x="0" y="0"/><use xlink:href="#L1_3" x="350" y="0"/><use xlink:href="#L1_3" x="-350" y="350"/><use xlink:href="#L1_3" x="0" y="350"/><use xlink:href="#L1_3" x="350" y="350"/></pattern><rect x="0" y="0" width="100%" height="100%" fill="url(#pattern_L1_3)"/></g><g fi:class="KUsePattern"><pattern id="pattern_L1_4" width="350" height="350" patternUnits="userSpaceOnUse"><use xlink:href="#L1_4" x="-350" y="-350"/><use xlink:href="#L1_4" x="0" y="-350"/><use xlink:href="#L1_4" x="350" y="-350"/><use xlink:href="#L1_4" x="-350" y="0"/><use xlink:href="#L1_4" x="0" y="0"/><use xlink:href="#L1_4" x="350" y="0"/><use xlink:href="#L1_4" x="-350" y="350"/><use xlink:href="#L1_4" x="0" y="350"/><use xlink:href="#L1_4" x="350" y="350"/></pattern><rect x="0" y="0" width="100%" height="100%" fill="url(#pattern_L1_4)"/></g><g fi:class="KUsePattern"><pattern id="pattern_L1_5" width="350" height="350" patternUnits="userSpaceOnUse"><use xlink:href="#L1_5" x="-350" y="-350"/><use xlink:href="#L1_5" x="0" y="-350"/><use xlink:href="#L1_5" x="350" y="-350"/><use xlink:href="#L1_5" x="-350" y="0"/><use xlink:href="#L1_5" x="0" y="0"/><use xlink:href="#L1_5" x="350" y="0"/><use xlink:href="#L1_5" x="-350" y="350"/><use xlink:href="#L1_5" x="0" y="350"/><use xlink:href="#L1_5" x="350" y="350"/></pattern><rect x="0" y="0" width="100%" height="100%" fill="url(#pattern_L1_5)"/></g><g fi:class="KUsePattern"><pattern id="pattern_L1_6" width="350" height="350" patternUnits="userSpaceOnUse"><use xlink:href="#L1_6" x="-350" y="-350"/><use xlink:href="#L1_6" x="0" y="-350"/><use xlink:href="#L1_6" x="350" y="-350"/><use xlink:href="#L1_6" x="-350" y="0"/><use xlink:href="#L1_6" x="0" y="0"/><use xlink:href="#L1_6" x="350" y="0"/><use xlink:href="#L1_6" x="-350" y="350"/><use xlink:href="#L1_6" x="0" y="350"/><use xlink:href="#L1_6" x="350" y="350"/></pattern><rect x="0" y="0" width="100%" height="100%" fill="url(#pattern_L1_6)"/></g><g fi:class="KUsePattern"><pattern id="pattern_L1_7" width="350" height="350" patternUnits="userSpaceOnUse"><use xlink:href="#L1_7" x="-350" y="-350"/><use xlink:href="#L1_7" x="0" y="-350"/><use xlink:href="#L1_7" x="350" y="-350"/><use xlink:href="#L1_7" x="-350" y="0"/><use xlink:href="#L1_7" x="0" y="0"/><use xlink:href="#L1_7" x="350" y="0"/><use xlink:href="#L1_7" x="-350" y="350"/><use xlink:href="#L1_7" x="0" y="350"/><use xlink:href="#L1_7" x="350" y="350"/></pattern><rect x="0" y="0" width="100%" height="100%" fill="url(#pattern_L1_7)"/></g></svg>