<svg xmlns="http://www.w3.org/2000/svg" xmlns:xlink="http://www.w3.org/1999/xlink" xmlns:fi="http://pattern.flaticon.com/" width="1920" height="700"><defs><path d="M357.7 119.7c12.4-12.4 12.4-32.4 0-44.8l-7.2-7.2c10-14.4 8.4-34-4-46.8-6.8-6.8-16-10.8-26-10.8-7.6 0-14.8 2.4-20.8 6.4l-7.2-7.2c-6-6-14-9.2-22.4-9.2-8.4 0-16.4 3.2-22.4 9.2-5.6 5.6-8.4 12.8-9.2 20-5.6-2.8-11.6-4.4-18-4.4-10.8 0-20.4 4-28 11.6-7.6 7.6-11.6 17.6-11.6 28 0 10.8 4 20.4 11.6 28l22 22-99.6 99.2-22-22c-7.6-7.6-17.6-11.6-28-11.6-10.8 0-20.4 4-28 11.6-12.4 12.4-14.8 31.2-7.2 46-7.6.4-14.8 3.6-20.4 9.2-12.4 12.4-12.4 32.8 0 45.2l7.6 7.2c-4.4 6-6.4 13.2-6.4 20.8 0 9.6 4 18.8 10.8 26 7.2 7.2 16.4 10.8 26 10.8 7.2 0 14.4-2.4 20.8-6.4l7.2 7.2c6 6 14 9.2 22.4 9.2 8.4 0 16.4-3.2 22.4-9.2 5.6-5.6 8.4-12.8 9.2-20 5.6 2.8 11.6 4.4 18 4.4 10.4 0 20.4-4 28-11.6 15.6-15.6 15.6-40.8 0-56l-22-22 99.2-99.2 22 22c7.6 7.6 17.6 11.6 28 11.6 10.8 0 20.4-4 28-11.6 13.2-13.2 14.8-33.2 6-48.4h2.4c8 0 14.4-2.4 18.8-7.2zm-20.8-89.6c7.6 7.6 8.8 18.8 4 28l-31.6-31.6c8.8-5.2 20.4-4 27.6 3.6zM30.5 336.5c-7.6-7.6-8.8-18.8-4-28l31.6 31.6c-8.8 5.2-20.4 4-27.6-3.6zm80 11.6c-7.2 7.2-19.2 7.2-26.4 0l-65.2-65.2c-7.2-7.6-7.2-19.2 0-26.4 3.6-3.6 8.4-5.6 13.2-5.6 4.8 0 9.6 2 13.2 5.6l65.2 65.2c7.2 7.2 7.2 19.2 0 26.4zm55.2-64.8c10.4 10.4 10.4 27.2 0 37.6-5.2 5.2-11.6 7.6-18.8 7.6s-13.6-2.8-18.8-7.6l-82-82c-10-10.4-10-27.6 0-37.6 5.2-5.2 11.6-7.6 18.8-7.6s13.6 2.8 18.8 7.6l55.6 55.6 26.4 26.4zm-21.6-40.8l-19.6-19.6 98.8-98.8 19.6 19.6-98.8 98.8zm176.4-77.6c-5.2 5.2-11.6 7.6-18.8 7.6s-13.6-2.8-18.8-7.6l-54.8-54.8-26.4-26.8c-5.2-4.8-8-11.6-8-18.8 0-7.2 2.8-13.6 7.6-18.8 5.2-5.2 11.6-7.6 18.8-7.6s13.6 2.8 18.8 7.6l58 58 9.6 9.6 14 14c10.4 10.4 10.4 27.2 0 37.6zm-4-60.4l-8.8-8.4-50.8-51.2c-7.6-7.2-7.6-19.2 0-26.4 3.6-3.6 8.4-5.6 13.2-5.6 5.2 0 9.6 2 13.2 5.6l11.6 11.6 42.4 42.4 11.6 11.6c7.2 7.2 7.2 19.2 0 26.4-2.8 2.8-6.8 3.2-9.6 3.2-8 0-17.2-3.6-22.8-9.2z" transform="translate(223 181) scale(.16349)" id="L1_0"/><g id="L1_1"><path d="M394.681 377.222c-1.2-4-4.8-5.2-8.4-3.6-128.8 63.6-242.4 36.4-243.6 36.4h-.8c-.8 0-92.8-10.8-94-73.6-1.2-66.4 34.8-198.4 61.2-263.6 22.8-56 81.6-58.8 110-60h2.4c22-.8 51.2 42 52 53.2.4 2.4-1.6 5.6-4.8 9.2-8 8.8-23.2 16.4-32 16.4-4.4 0-11.2-4.4-18.4-9.2-5.2-3.6-11.2-7.2-17.6-10.4l-33.2-18.8c-3.2-1.6-7.2-.8-8.8 2.4-1.6 3.2-.8 7.2 2.4 8.8l5.6 3.2c-5.2 2-10 5.6-13.6 11.6-14.8 22.4-14.8 72-8 98 7.6 29.6 20.8 101.2 20.8 102 .4 2.4 2.4 4.4 4.4 5.2 2.4.8 4.8 0 6.8-1.6 56.4-60 118.4-8.4 120.8-6 2.8 2.4 6.8 2 9.2-.4 30.8-34.8 82.8-46.4 83.2-46.4 3.6-.8 5.6-4.4 4.8-8-.8-3.6-4.4-5.6-8-4.8-2 .4-52 11.6-86 46-16.8-12-72-44.4-124.8 2-4-22-12.8-68-18.8-90.8-6-22.4-6.4-68.4 6.4-87.2 2.8-4 6-6.4 9.2-6.8 14-2 26.8 6.4 38 13.6 9.2 6 17.2 11.2 25.6 11.2 12.4 0 31.2-9.2 41.6-20.8 6-6.4 8.8-13.2 8-19.2-1.6-18-36-66.4-66-65.2h-2.4c-28.8 1.2-95.6 4.4-121.2 68.4-23.2 57.2-63.6 195.6-62 268.8 1.2 72 97.2 85.6 105.2 86.4 4 .8 29.2 6.4 67.2 6.4 46.8 0 113.2-8.4 184.8-44 3.2-1.6 4.4-5.6 2.8-8.8z" transform="translate(-6 265) scale(.13953)"/><path d="M285.481 326.422l-40.8-48.4c-1.2-1.6-3.2-2.4-5.2-2.4s-3.6.8-5.2 2.4l-41.2 49.2c-1.6 2-2 4.8-.8 6.8 1.2 2.4 3.2 3.6 6 3.6h17.2v48.8c0 4 2.8 7.2 6.4 7.2h34c3.6 0 6.4-2.8 6.4-6.4v-49.2h18.8c3.6.4 6.8-2.8 6.8-6.4 0-2-.8-4-2.4-5.2zm-29.2-1.6c-3.6 0-6.4 2.8-6.4 6.4v48.8h-20.8v-48.4c0-3.6-2.8-6.4-6.4-6.4h-10.4v-.4l27.6-32.4 27.6 32.4h-11.2z" transform="translate(-6 265) scale(.13953)"/></g><g id="L1_2"><path d="M428.124 395.421c-44.853 39.194-99.756 67.624-163.186 84.502-55.504 14.768-117.617 20.265-180.018 15.96-5.791-.4-11.223-3.023-15.103-7.341-11.516-12.815-19.54-29.37-26.259-45.075-7.987-18.669-13.116-38.209-16.576-58.186-7.37-42.561-4.91-85.113 2.549-127.488 1.631-9.266 4.149-18.097 6.561-27.147 1.462-5.488 1.356-13.015-6.303-12.74-7.595.272-9.083 10.8-10.582 16.535-2.844 10.882-4.323 22.035-6.449 33.072C1.125 327.899 1.125 421.899 52.943 492.89c5.631 7.714 11.042 14.431 20.669 16.706 16.827 3.977 36.375 2.771 53.589 2.771 49.25 0 96.704-6.004 141.593-17.949 65.673-17.475 122.6-46.982 169.2-87.703 7.268-6.352-2.549-17.686-9.87-11.294z" transform="translate(129 14) scale(.11706)"/><path d="M505.431 263.422c-3.314-33.459-20.157-63.925-46.211-83.586-52.6-39.693-135.596-30.951-172.368 26.381-16.395 25.56-21.848 56.277-15.531 84.716a117.46 117.46 0 0 0-45.45-3.893c-24.249 2.684-46.772 12.92-64.198 28.789.976-10.404 1.691-23.37 1.498-38.328-.464-35.956-6.55-90.577-32.674-147.629 18.558-8.279 28.313-17.232 33.347-23.706 3.257 5.271 8.02 9.434 13.656 11.802 12.63 5.306 23.529-1.76 34.906-6.658 10.269-4.421 20.356-9.709 26.886-19.142 7.665-11.072 5.667-21.781 2.373-33.896-3.812-14.026-7.754-28.53-17.492-41.808a7.21 7.21 0 0 0-.354-.446C216.196 7.125 206.3 1.595 195.953.445a7.281 7.281 0 0 0-.36-.031c-14.918-.933-30.445-.304-50.344 2.037a6.552 6.552 0 0 0-.309.043C115.543 7.197 93.789 24.458 78.117 45.3c-16.993 22.599-16.445 53.497-15.569 67.654-3.341 10.184-7.727 20.1-12.359 30.572-4.766 10.775-9.694 21.917-13.4 33.43-2.934 9.116 11.297 13.862 14.278 4.596 7.207-22.389 19.07-42.958 26.204-65.378 1.845-5.799-7.147-36.274 14.144-63.86 14.561-18.866 31.725-31.103 55.742-34.984 18.81-2.207 33.419-2.811 47.307-1.957 6.419.763 12.718 4.375 17.782 10.195 7.966 10.974 11.356 23.443 14.942 36.638 2.634 9.695 3.632 12.678-.556 21.882-5.165 7.107-13.3 10.24-20.972 13.787-6.943 3.21-16.408 10.006-24.121 5.356-3.948-2.38-4.761-5.808-7.09-9.361-3.479-5.309-11.823-12.774-8.417-20.056 3.069-6.561 10.88-4.877 15.9-2.32 4.936 2.515 12.218 5.634 15.512-.875 3.408-6.733-3.812-9.999-8.701-12.49-4.874-2.484-10.933-5.571-19.264-3.55-8.076 1.667-14.511 6.661-17.265 13.398-4.305 9.837-.461 18.69 3.235 25.239l-.903-.264s.017-.073.066-.211c-1.669 4.64-11.214 15.966-35.387 25.616-2.93 1.17-4.786 4.119-4.669 7.238.086 2.274.458 6.524 1.384 8.511 25.732 55.205 31.726 108.284 32.222 143.09.429 30.064-3.05 52.054-4.529 59.963-16.986 26.654-21.068 60.642-10.477 90.424 3.214 9.04 17.378 4.102 14.133-5.025-12.221-34.367-1.037-73.7 26.305-97.174 29.106-24.989 71.087-30.837 106.159-15.495 5.945 2.603 12.33-3.488 10.011-9.551-7.937-20.742-7.831-44.041-.548-64.949 7.297-20.949 21.076-36.085 38.873-48.798 35.549-25.393 88.166-20.387 122.094 5.215 22.721 17.146 37.416 43.786 40.318 73.091 2.712 27.375-4.578 56.068-21.079 82.976a183.611 183.611 0 0 1-6.109 9.306c-5.539 7.906 6.71 16.566 12.285 8.606 2.32-3.312 4.545-6.7 6.611-10.071 18.229-29.718 26.258-61.633 23.222-92.292z" transform="translate(129 14) scale(.11706)"/></g><g id="L1_3"><path d="M247.452 271.825a7.5 7.5 0 0 0-10.604-.254L212 295.256V276.5c0-4.142-3.357-7.5-7.5-7.5s-7.5 3.358-7.5 7.5v63c0 4.142 3.357 7.5 7.5 7.5s7.5-3.358 7.5-7.5v-17.756l24.849 23.685a7.474 7.474 0 0 0 5.174 2.071 7.5 7.5 0 0 0 5.176-12.929L219.846 308.5l27.353-26.071a7.5 7.5 0 0 0 .253-10.604zM287 284.5c4.715 0 9.013 2.779 10.951 7.081a7.5 7.5 0 1 0 13.676-6.161c-4.356-9.671-14.023-15.92-24.627-15.92-14.888 0-27 12.112-27 27v24c0 14.888 12.112 27 27 27s27-12.112 27-27V310a7.5 7.5 0 0 0-7.5-7.5h-13c-4.143 0-7.5 3.358-7.5 7.5s3.357 7.5 7.5 7.5h5.5v3c0 6.617-5.383 12-12 12s-12-5.383-12-12v-24c0-6.617 5.383-12 12-12z" transform="translate(43 190) scale(.11719)"/><path d="M462.5 183.751v-75.502C462.5 48.561 413.939 0 354.251 0H157.749C98.061 0 49.5 48.561 49.5 108.249V120c0 9.674 15 9.674 15 0v-11.751C64.5 56.832 106.331 15 157.749 15h196.502c51.418 0 93.249 41.832 93.249 93.249v75.502c0 31.749-16.398 61.506-43.034 78.577a188.54 188.54 0 0 0-9.548-11.376c-6.528-7.171-17.621 2.925-11.094 10.097 24.477 26.894 39.67 60.509 43.811 96.268-43.411 17.607-88.123 28.657-132.999 32.824-37.423 3.474-75.056 2.213-111.852-3.751-46.088-7.47-82.385-21.299-98.411-29.062 9.731-84.109 81.098-149.202 165.162-152.565 40.119-1.605 80.066 11.112 111.885 35.635 3.53 1.16 6.998 1.239 10.404.239 25.121-10.216 41.354-34.341 41.354-61.461v-66.35c0-36.572-29.753-66.325-66.325-66.325H165.146c-36.572 0-66.325 29.753-66.325 66.325v66.35c0 23.949 12.865 45.675 33.023 57.376a189.372 189.372 0 0 0-24.244 25.824c-26.724-17.074-43.1-46.681-43.1-78.625V159c0-9.674-15-9.674-15 0v24.751c0 36.82 18.739 70.968 49.371 90.848-33.065 50.411-45.873 127.502-8.423 179.207C127.129 504.447 198.444 512 256 512c60.416 0 137.203-8.889 171.049-66.603 30.236-51.558 17.473-123.002-13.86-170.853 30.537-19.878 49.311-54.193 49.311-90.793zm-348.679-4.576v-66.35c0-28.3 23.024-51.325 51.325-51.325h181.707c28.301 0 51.325 23.024 51.325 51.325v66.35c0 20.517-12.007 38.812-30.705 47.009C335.019 202.2 296.506 189.523 256 189.523c-41.671 0-80.209 13.651-111.395 36.705-18.571-8.102-30.784-26.522-30.784-47.053zm265.836 292.618C351.061 488.755 310.611 497 256 497s-95.061-8.245-123.657-25.207c-24.135-14.316-39.205-34.661-45.588-61.705 69.131 30.738 149.642 38.928 224.198 29.388 9.619-1.231 7.715-16.101-1.904-14.879-72.633 9.293-159.02 2.805-224.902-32.36-1.829-.98-.946-16.159-.883-18.933 107.927 48.117 237.004 42.53 345.471-.263a166.164 166.164 0 0 1-.642 19.471c-28.032 11.653-56.825 20.573-85.605 26.505-9.362 1.93-6.04 16.555 3.027 14.691 26.794-5.523 53.586-13.548 79.793-23.884-6.349 27.176-21.437 47.607-45.651 61.969z" transform="translate(43 190) scale(.11719)"/></g><path d="M504.5 497H390.914V160.359c11.532-4.486 19.733-15.703 19.737-28.809v-.75l25.144.007v86.448c0 16.129 13.122 29.251 29.251 29.251s29.251-13.122 29.251-29.251v-86.446h10.035c9.673 0 9.673-15 0-15h-10.035V29.251C494.298 13.122 481.176 0 465.047 0c-16.129 0-29.251 13.122-29.251 29.251v86.556l-25.142-.007.003-16.79c.002-9.657-14.998-9.693-15-.003l-.003 16.789-31.791-.01.003-16.789c.002-9.657-14.998-9.693-15-.003l-.003 16.788-188.041-.056.003-16.716c.002-9.657-14.998-9.693-15-.003l-.003 16.714-31.791-.01.003-16.715c.002-9.657-14.998-9.693-15-.003l-.003 16.713-22.827-.007V29.251C76.205 13.122 63.083 0 46.953 0 30.824 0 17.702 13.122 17.702 29.251v28.041c0 9.673 15 9.673 15 0V29.251C32.702 21.393 39.095 15 46.953 15s14.251 6.393 14.251 14.251v188.003c0 7.858-6.393 14.252-14.251 14.252s-14.251-6.394-14.251-14.252V93.269c0-9.673-15-9.673-15 0v22.429H7.667c-9.673 0-9.673 15 0 15h10.035v86.557c0 16.129 13.122 29.252 29.251 29.252s29.251-13.123 29.251-29.252V130.7l22.824.007v.826c-.002 8.256 3.208 16.019 9.041 21.859a30.73 30.73 0 0 0 13.017 7.782V497H7.5c-9.673 0-9.673 15 0 15h497c9.673 0 9.673-15 0-15zM450.795 29.251c0-7.858 6.393-14.251 14.251-14.251s14.251 6.393 14.251 14.251v188.004c0 7.858-6.393 14.251-14.251 14.251s-14.251-6.393-14.251-14.251V29.251zM363.86 130.785l31.791.01v.751c-.002 8.773-7.132 15.909-15.896 15.908h-.004c-8.765-.002-15.894-7.143-15.891-15.917v-.752zm-245.177 12.007a15.818 15.818 0 0 1-4.654-11.256v-.826l31.791.01v.826c-.002 8.644-6.927 15.683-15.512 15.889a7.507 7.507 0 0 0-1.721-.206c-.296 0-.587.022-.874.055a15.755 15.755 0 0 1-9.03-4.492zM177.3 497v-64.541l118.783.022c9.612 0 9.668-14.998.003-15l-118.784-.021.007-24.271c.003-9.963 8.331-18.303 18.295-18.303l120.811.027c10.085.003 18.288 8.218 18.285 18.314l-.007 24.267-7.079-.006c-9.611 0-9.677 14.992-.012 15l7.089.006V497H177.3zm172.391 0v-70.949c0-.176-.014-.348-.026-.521.012-.176.026-.351.026-.528l.009-31.771c.005-18.367-14.925-33.313-33.281-33.318l-120.811-.027h-.009c-8.89 0-17.248 3.463-23.535 9.751-6.288 6.289-9.752 14.652-9.755 23.548l-.009 31.771c0 .186.014.37.027.555-.013.179-.027.358-.027.541V497h-26.214V161.835c14.089-2.866 24.728-15.354 24.733-30.285v-.825l188.041.056v.752c-.004 15.746 11.822 28.774 27.054 30.673V497h-26.223z" transform="translate(-28 97) scale(.11719)" id="L1_4"/><path d="M334.18 421.647c30.477-36.474 75.64-44.727 116.516-64.153 8.737-4.154 2.298-17.702-6.439-13.548-43.143 20.512-89.405 29.569-121.587 68.083-31.542 37.747-80.754 67.68-125.375 76.257-43.27 8.318-103.391 14.371-146.189-3.292 87.728 14.303 180.288-17.461 243.795-78.622 30.719-29.584 65.173-51.792 102.792-71.158 28.434-14.638 50.11-34.308 62.685-56.885 8.176-14.679 12.018-29.7 11.49-44.434 7.4 4.905 15.634 11.862 19.69 19.985 9.465 18.956 9.103 48.092-20.3 73.017-7.405 6.278 2.369 17.656 9.699 11.442 29.681-25.161 39.11-60.943 24.021-91.16-8.627-17.275-28.478-28.512-36.328-32.424a79.203 79.203 0 0 0-2.805-7.759c-11.064-26.217-59.639-62.591-98.44-88.489-11.023-7.357-24.475-8.764-36.331-4.784L256.734 3.291c-5.403-8.025-17.846.35-12.443 8.376l73.618 109.361c-14.064 11.601-23.635 28.739-36.501 41.698-11.727 11.813-25.539 20.52-42.063 23.653-1.229-17.396-6.757-42.113-28.257-43.13L115.711 3.257c-5.446-7.996-17.844.45-12.396 8.445l93.273 136.904c-7.051 6.526-11.949 19.025-15.651 39.693-1.706 9.522 13.06 12.168 14.765 2.645 1.318-7.355 4.377-35.266 17.182-32.326 8.495 1.954 12.03 22.75 11.744 36.182-.001.034.003.067.003.101 0 .037-.005.073-.005.111.186 35.48-4.699 86.487-29.018 127.999-14.366 24.523-28.993 34.317-29.32 34.533a7.466 7.466 0 0 0-2.252 2.264c-22.023 13.738-41.039 16.073-53.948 15.275l.264-.129c11.117-5.435 21.36-13.491 30.667-24.077l11.319 5.206c8.803 4.046 15.051-9.588 6.269-13.628l-8.093-3.722c6.166-8.831 11.396-18.281 15.945-28.036l16.214 5.659c9.12 3.183 14.084-10.972 4.943-14.162l-15.246-5.321c3.859-9.833 7.294-20.334 10.256-31.371l16.744 4.513c9.157 2.469 13.283-11.955 3.903-14.483l-17.084-4.604a377.556 377.556 0 0 0 5.042-27.471c1.394-9.574-13.449-11.736-14.844-2.162-5.45 37.418-15.834 76.376-37.583 107.858-22.454 32.503-60.718 43.35-93.615 62.724-26.736 15.74-50.584 34.181-44.119 62.265 4.902 21.293 20.369 34.027 40.615 43.16 48.584 21.918 107.743 15.46 158.44 5.714 47.811-9.191 100.43-41.13 134.055-81.369zm117.845-208.82c7.801 18.486 6.158 38.612-4.753 58.202-10.594 19.021-29.663 36.497-53.851 49.462-22.516-64.435-15.277-146.675-11.957-174.066 39.009 27.868 64.294 51.554 70.561 66.402zM312.189 150.17c3.866-4.721 7.863-9.603 12.094-14.487 8.737-10.087 23.697-12.107 34.795-4.7a898.54 898.54 0 0 1 5.102 3.431c1.04 4.588 3.635 21.265-8.294 38.659-17.218 25.107-57.626 40.926-116.909 45.819.359-6.024.554-11.826.622-17.336 35.201-5.741 53.397-27.949 72.59-51.386zm-74.447 83.873l.09-.003c60.948-4.7 102.966-20.059 125.144-45.679-1.596 38.954.341 92.63 16.853 138.711.055.154.134.292.198.44-8.431 4.464-16.312 8.816-23.848 13.25-17.09-11.495-46.529-22.089-94.742-15.791-19.861 2.594-40.408 7.957-58.886 15.115a165.662 165.662 0 0 0 5.381-8.448c18.319-30.777 26.538-66.194 29.81-97.595zM52.799 404.799c10.196-6.005 22.355-12.363 35.437-18.925 4.013 1.48 13.393 4.31 26.471 4.31 15.736 0 36.816-4.102 60.296-19.588 40.235-26.537 120.952-45.512 166.791-20.983-19.313 12.467-37.087 26.489-57.3 45.955-43.641 42.029-99.828 68.774-158.209 75.309-56.963 6.377-106.579-2.64-110.598-20.1-3.519-15.287 6.887-28.178 37.112-45.978zm265.714-369.32h142c9.674 0 9.674-15 0-15h-142c-9.675 0-9.675 15 0 15zm101.5 60.5a7.5 7.5 0 0 0 7.5 7.5h77c9.674 0 9.674-15 0-15h-77a7.5 7.5 0 0 0-7.5 7.5zm84.5 317.5h-77c-9.674 0-9.674 15 0 15h77c9.674 0 9.674-15 0-15zm-155 62.815h-.035l-41.5.186c-9.537.043-9.509 15 .067 15l41.5-.186c9.655-.044 9.62-15-.032-15zm129.32-.091h-.023l-90.668.276c-9.537.029-9.531 15 .046 15l90.668-.276c9.66-.029 9.637-15-.023-15z" transform="translate(187 274) scale(.11717)" id="L1_5"/><g id="L1_6"><path d="M173.3 447.93a10.07 10.07 0 0 0 7.067-2.93 10.083 10.083 0 0 0 2.934-7.07c0-2.63-1.07-5.211-2.934-7.07a10.07 10.07 0 0 0-7.066-2.93c-2.633 0-5.211 1.07-7.07 2.93s-2.93 4.44-2.93 7.07a10.06 10.06 0 0 0 2.93 7.07 10.08 10.08 0 0 0 7.07 2.93zm0 0" transform="translate(136 104) scale(.11719)"/><path d="M502.469 492h-48.106l-18.277-32.672v-89.133c0-21.02-13.492-39.332-33.57-45.562L325.8 300.82v-81.226a37.54 37.54 0 0 0-6.14-20.621c21.769-7.508 37.456-28.188 37.456-52.473 0-28.934-22.262-52.758-50.554-55.27V50.062C306.563 22.457 284.105 0 256.5 0c-5.523 0-10 4.477-10 10v79.816c-.047 0-.09-.007-.137-.007-8.699-.176-16.925 3.078-23.183 9.113-6.258 6.035-9.793 14.148-9.95 22.84-.328 17.945 14.008 32.808 31.954 33.136l.582.012c-1.739 16.356-6.582 32.52-14.297 47.395a37.716 37.716 0 0 0-4.207 17.289v86.008l-24.09 43.406-129.063 81.14c-12.277 7.72-19.609 20.985-19.609 35.489V492h-44c-5.523 0-10 4.477-10 10s4.477 10 10 10h491.973c5.52 0 10-4.477 10-10s-4.48-10-10.004-10zM337.117 146.5c0 17.898-13.312 32.742-30.555 35.156v-70.312c17.243 2.414 30.555 17.258 30.555 35.156zM266.5 21.71c11.676 4.13 20.063 15.278 20.063 28.352V193.29c0 4.36 2.82 8.215 6.976 9.531 7.332 2.328 12.262 9.07 12.262 16.774v78.597h-58.535v-78.597c0-2.856.66-5.574 1.957-8.082 11.304-21.793 17.277-46.032 17.277-70.102zm-29.762 109.352a12.461 12.461 0 0 1-3.511-8.937 12.462 12.462 0 0 1 3.835-8.809 12.476 12.476 0 0 1 8.704-3.515c.14 0 .28.004.422.004.105 0 .207-.012.312-.016v25.129l-.953-.016a12.482 12.482 0 0 1-8.809-3.84zm-84.965 317.446c-2.433-4.957-8.425-7.004-13.386-4.567l-44.305 21.762a10.01 10.01 0 0 0-1.855 1.184L74.5 481.133v-15.496c0-7.582 3.832-14.52 10.254-18.559l131.234-82.508a10.005 10.005 0 0 0 3.422-3.61l23.738-42.769h53.97l-28.888 43.36a123.473 123.473 0 0 1-48.27 42.316l-20.702 10.172c-4.957 2.434-7 8.426-4.567 13.383 2.438 4.957 8.43 7.004 13.387 4.566l20.7-10.168a143.514 143.514 0 0 0 56.097-49.183l7.852-11.785 81.773 30.12v92.442c0 2.992.46 5.875 1.316 8.586H92.902l10.993-8.836 43.312-21.273c4.957-2.434 7-8.426 4.566-13.383zM403.086 492c-4.734 0-8.586-3.852-8.586-8.586V384a10 10 0 0 0-6.543-9.383l-83.824-30.879 10.879-16.332 4.965-7.449 76.613 23.773c11.66 3.622 19.496 14.254 19.496 26.465v91.742c0 1.711.437 3.391 1.27 4.883l14.09 25.18zm0 0" transform="translate(136 104) scale(.11719)"/></g><path d="M121.176 287.633c5.344 17.808 37.191 128 23.199 176.976a8 8 0 0 0 7.695 10.223h176a8.004 8.004 0 0 0 7.7-10.2c-13.985-48.933 17.855-159.198 23.199-176.976 125-94.215 121.773-137.511 120.992-142.16a7.805 7.805 0 0 0-.594-1.934c-9.597-21.48-59.398-129.203-92.8-140.32-14.399-4.8-25.993-4.144-34.399 1.942-9.305 6.707-13.832 19.09-13.832 37.832a18.251 18.251 0 0 0 7.633 15.714c9.047 6.399 23.695 4.27 32.957 1.957a110.105 110.105 0 0 1 5.144 30.145 165.932 165.932 0 0 0 12.25 66.715 74.468 74.468 0 0 0-50.242 45.437 100.282 100.282 0 0 0-57.598 20.801c-17.847-19.098-15.41-25.777-6.503-50.23 1.742-4.801 3.68-10.106 5.695-16.153 9.945-29.816 2.45-49.367-5.602-60.527a51.072 51.072 0 0 0-84 0c-8.039 11.16-15.535 30.71-5.597 60.527 2.015 6.047 3.949 11.368 5.695 16.153 8.902 24.453 11.344 31.132-6.504 50.23a100.293 100.293 0 0 0-57.602-20.8 74.454 74.454 0 0 0-50.238-45.438A165.862 165.862 0 0 0 96.07 90.832a110.244 110.244 0 0 1 5.137-30.145c9.273 2.313 23.922 4.434 32.961-1.957a18.26 18.26 0 0 0 7.633-15.714c0-18.743-4.528-31.125-13.832-37.832-8.442-6.086-20-6.75-34.403-1.942C60.2 14.36 10.434 122.082.77 143.562a7.805 7.805 0 0 0-.594 1.934c-.778 4.649-4 47.945 121 142.137zM98.602 18.426a24.359 24.359 0 0 1 20-.258c4.695 3.387 7.199 12 7.199 24.848 0 2.027-.57 2.402-.883 2.648-3.824 2.715-16.645.977-26.191-2.398a7.998 7.998 0 0 0-10.11 4.648 135.804 135.804 0 0 0-8.547 42.918c0 45.035-14.488 67.313-14.605 67.496a7.996 7.996 0 0 0 5.04 12.344c42.397 8.48 49.44 40.379 49.718 41.68a8 8 0 0 0 7.847 6.48 80.902 80.902 0 0 1 58.067 21.36 7.98 7.98 0 0 0 5.734 2.64 7.766 7.766 0 0 0 5.856-2.344c29.21-29.199 26.793-41.414 15.488-72.445-1.695-4.664-3.59-9.852-5.598-15.738-6.168-18.52-4.992-34.465 3.406-46.121 6.532-9.602 17.395-15.352 29.008-15.352s22.477 5.75 29.008 15.352c8.402 11.656 9.602 27.601 3.41 46.12-1.969 5.887-3.867 11.075-5.601 15.739-11.305 31.031-13.72 43.246 15.488 72.445a7.994 7.994 0 0 0 11.559-.261 80.9 80.9 0 0 1 58.175-21.395 7.993 7.993 0 0 0 7.848-6.48c.066-.329 6.914-33.11 49.723-41.68a7.985 7.985 0 0 0 5.824-4.8 7.99 7.99 0 0 0-.762-7.513c-.144-.214-14.633-22.492-14.633-67.527a135.766 135.766 0 0 0-8.543-42.894 8 8 0 0 0-10.113-4.649c-9.543 3.352-22.351 5.098-26.191 2.399-.313-.215-.88-.622-.88-2.645 0-12.875 2.489-21.465 7.2-24.852a24.374 24.374 0 0 1 20 .258c20.457 6.785 61.168 82.785 82.527 130.176-.46 6.129-7.847 46.105-116.797 127.809a7.914 7.914 0 0 0-2.832 4c-1.601 5.023-36.328 117.367-26.304 178.398h-156.13c10.024-61.016-24.734-173.36-26.304-178.398-.5-1.598-1.488-3-2.832-4-110.137-82.567-116.52-122.52-116.887-127.688C37.36 101.38 78.121 25.234 98.602 18.426zm0 0" transform="translate(286 4) scale(.12496)" id="L1_7"/></defs><g fi:class="KUsePattern"><pattern id="pattern_L1_0" width="350" height="350" patternUnits="userSpaceOnUse"><use xlink:href="#L1_0" x="-350" y="-350"/><use xlink:href="#L1_0" y="-350"/><use xlink:href="#L1_0" x="350" y="-350"/><use xlink:href="#L1_0" x="-350"/><use xlink:href="#L1_0"/><use xlink:href="#L1_0" x="350"/><use xlink:href="#L1_0" x="-350" y="350"/><use xlink:href="#L1_0" y="350"/><use xlink:href="#L1_0" x="350" y="350"/></pattern><rect width="100%" height="100%" fill="url(#pattern_L1_0)"/></g><g fi:class="KUsePattern"><pattern id="pattern_L1_1" width="350" height="350" patternUnits="userSpaceOnUse"><use xlink:href="#L1_1" x="-350" y="-350"/><use xlink:href="#L1_1" y="-350"/><use xlink:href="#L1_1" x="350" y="-350"/><use xlink:href="#L1_1" x="-350"/><use xlink:href="#L1_1"/><use xlink:href="#L1_1" x="350"/><use xlink:href="#L1_1" x="-350" y="350"/><use xlink:href="#L1_1" y="350"/><use xlink:href="#L1_1" x="350" y="350"/></pattern><rect width="100%" height="100%" fill="url(#pattern_L1_1)"/></g><g fi:class="KUsePattern"><pattern id="pattern_L1_2" width="350" height="350" patternUnits="userSpaceOnUse"><use xlink:href="#L1_2" x="-350" y="-350"/><use xlink:href="#L1_2" y="-350"/><use xlink:href="#L1_2" x="350" y="-350"/><use xlink:href="#L1_2" x="-350"/><use xlink:href="#L1_2"/><use xlink:href="#L1_2" x="350"/><use xlink:href="#L1_2" x="-350" y="350"/><use xlink:href="#L1_2" y="350"/><use xlink:href="#L1_2" x="350" y="350"/></pattern><rect width="100%" height="100%" fill="url(#pattern_L1_2)"/></g><g fi:class="KUsePattern"><pattern id="pattern_L1_3" width="350" height="350" patternUnits="userSpaceOnUse"><use xlink:href="#L1_3" x="-350" y="-350"/><use xlink:href="#L1_3" y="-350"/><use xlink:href="#L1_3" x="350" y="-350"/><use xlink:href="#L1_3" x="-350"/><use xlink:href="#L1_3"/><use xlink:href="#L1_3" x="350"/><use xlink:href="#L1_3" x="-350" y="350"/><use xlink:href="#L1_3" y="350"/><use xlink:href="#L1_3" x="350" y="350"/></pattern><rect width="100%" height="100%" fill="url(#pattern_L1_3)"/></g><g fi:class="KUsePattern"><pattern id="pattern_L1_4" width="350" height="350" patternUnits="userSpaceOnUse"><use xlink:href="#L1_4" x="-350" y="-350"/><use xlink:href="#L1_4" y="-350"/><use xlink:href="#L1_4" x="350" y="-350"/><use xlink:href="#L1_4" x="-350"/><use xlink:href="#L1_4"/><use xlink:href="#L1_4" x="350"/><use xlink:href="#L1_4" x="-350" y="350"/><use xlink:href="#L1_4" y="350"/><use xlink:href="#L1_4" x="350" y="350"/></pattern><rect width="100%" height="100%" fill="url(#pattern_L1_4)"/></g><g fi:class="KUsePattern"><pattern id="pattern_L1_5" width="350" height="350" patternUnits="userSpaceOnUse"><use xlink:href="#L1_5" x="-350" y="-350"/><use xlink:href="#L1_5" y="-350"/><use xlink:href="#L1_5" x="350" y="-350"/><use xlink:href="#L1_5" x="-350"/><use xlink:href="#L1_5"/><use xlink:href="#L1_5" x="350"/><use xlink:href="#L1_5" x="-350" y="350"/><use xlink:href="#L1_5" y="350"/><use xlink:href="#L1_5" x="350" y="350"/></pattern><rect width="100%" height="100%" fill="url(#pattern_L1_5)"/></g><g fi:class="KUsePattern"><pattern id="pattern_L1_6" width="350" height="350" patternUnits="userSpaceOnUse"><use xlink:href="#L1_6" x="-350" y="-350"/><use xlink:href="#L1_6" y="-350"/><use xlink:href="#L1_6" x="350" y="-350"/><use xlink:href="#L1_6" x="-350"/><use xlink:href="#L1_6"/><use xlink:href="#L1_6" x="350"/><use xlink:href="#L1_6" x="-350" y="350"/><use xlink:href="#L1_6" y="350"/><use xlink:href="#L1_6" x="350" y="350"/></pattern><rect width="100%" height="100%" fill="url(#pattern_L1_6)"/></g><g fi:class="KUsePattern"><pattern id="pattern_L1_7" width="350" height="350" patternUnits="userSpaceOnUse"><use xlink:href="#L1_7" x="-350" y="-350"/><use xlink:href="#L1_7" y="-350"/><use xlink:href="#L1_7" x="350" y="-350"/><use xlink:href="#L1_7" x="-350"/><use xlink:href="#L1_7"/><use xlink:href="#L1_7" x="350"/><use xlink:href="#L1_7" x="-350" y="350"/><use xlink:href="#L1_7" y="350"/><use xlink:href="#L1_7" x="350" y="350"/></pattern><rect width="100%" height="100%" fill="url(#pattern_L1_7)"/></g></svg>